<?xml version="1.0" standalone="no"?>
<!DOCTYPE svg PUBLIC "-//W3C//DTD SVG 20010904//EN"
 "http://www.w3.org/TR/2001/REC-SVG-20010904/DTD/svg10.dtd">
<svg version="1.0" xmlns="http://www.w3.org/2000/svg"
 width="1920.000000pt" height="1920.000000pt" viewBox="0 0 1920.000000 1920.000000"
 preserveAspectRatio="xMidYMid meet">
<metadata>
Created by potrace 1.14, written by Peter Selinger 2001-2017
</metadata>
<g transform="translate(0.000000,1920.000000) scale(0.100000,-0.100000)"
fill="#000000" stroke="none">
<path d="M9240 17984 c-1118 -49 -2088 -266 -3077 -690 -657 -281 -1269 -642
-1828 -1078 -475 -370 -1022 -902 -1411 -1371 -228 -275 -533 -711 -716 -1025
-668 -1145 -1037 -2324 -1140 -3640 -20 -251 -16 -973 5 -1230 98 -1140 386
-2145 906 -3155 306 -595 645 -1097 1076 -1598 172 -198 611 -641 830 -836 83
-74 208 -199 279 -280 147 -167 555 -575 750 -749 778 -697 1668 -1230 2671
-1602 2047 -758 4048 -759 6125 -3 1452 528 2757 1472 3747 2711 830 1038
1357 2194 1597 3507 97 532 137 996 138 1595 0 843 -94 1566 -303 2315 -140
503 -300 920 -524 1366 -337 671 -733 1253 -1244 1829 -197 221 -582 607 -769
770 -87 76 -195 184 -275 275 -293 334 -741 761 -1102 1050 -1322 1061 -2943
1690 -4690 1820 -199 15 -861 27 -1045 19z m2805 -4514 c433 -341 836 -812
1107 -1290 297 -524 485 -1082 578 -1712 46 -315 54 -455 55 -878 0 -398 -5
-494 -41 -790 -132 -1090 -536 -1960 -1253 -2694 -676 -691 -1445 -1069 -2406
-1183 -210 -25 -756 -25 -970 0 -536 63 -990 196 -1411 416 -495 259 -968 664
-1336 1141 -115 150 -115 150 28 58 110 -70 484 -268 507 -268 4 0 0 17 -9 38
-266 620 -401 1263 -423 2013 -28 1015 135 1837 515 2599 303 606 703 1105
1212 1512 557 445 1188 701 1962 795 206 25 775 25 975 0 418 -52 753 -139
1088 -281 l37 -16 -41 82 c-83 165 -225 408 -304 518 -17 25 -36 52 -40 60
-10 16 61 -34 170 -120z"/>
</g>
</svg>
