<?xml version="1.0" encoding="iso-8859-1"?>
<!-- Generator: Adobe Illustrator 19.0.0, SVG Export Plug-In . SVG Version: 6.00 Build 0)  -->
<svg version="1.1" id="Layer_1" xmlns="http://www.w3.org/2000/svg" xmlns:xlink="http://www.w3.org/1999/xlink" x="0px" y="0px"
	 viewBox="0 0 512 512" style="enable-background:new 0 0 512 512;" xml:space="preserve">
<rect x="33.959" y="124.865" style="fill:#F9D85C;" width="444.082" height="282.122"/>
<rect x="33.959" y="375.641" style="fill:#DDB92E;" width="444.082" height="31.347"/>
<rect x="33.959" y="124.865" style="fill:#37A0BD;" width="444.082" height="94.041"/>
<rect x="33.959" y="124.865" style="fill:#64C1DF;" width="444.082" height="47.02"/>
<g>
	<rect x="33.959" y="124.865" style="fill:#FFFFFF;" width="21.42" height="282.122"/>
	<rect x="315.559" y="148.376" style="fill:#FFFFFF;" width="104.49" height="47.02"/>
</g>
<path style="fill:#F9D85C;" d="M112.849,124.865H68.963v-15.673c0-5.771,4.678-10.449,10.449-10.449H102.4
	c5.771,0,10.449,4.678,10.449,10.449V124.865z"/>
<rect x="7.837" y="146.808" style="fill:#37A0BD;" width="26.122" height="50.155"/>
<rect x="7.837" y="146.808" style="fill:#64C1DF;" width="26.122" height="25.078"/>
<rect x="478.041" y="146.808" style="fill:#37A0BD;" width="26.122" height="50.155"/>
<rect x="478.041" y="146.808" style="fill:#64C1DF;" width="26.122" height="25.078"/>
<circle style="fill:#37A0BD;" cx="305.11" cy="297.273" r="121.208"/>
<path style="fill:#64C1DF;" d="M426.318,297.273H183.902c0-66.947,54.262-121.208,121.208-121.208S426.318,230.327,426.318,297.273z
	"/>
<circle style="fill:#FFFFFF;" cx="305.11" cy="297.273" r="73.143"/>
<path style="fill:#F9D85C;" d="M446.171,124.865h-104.49v-20.898c0-5.771,4.678-10.449,10.449-10.449h83.592
	c5.771,0,10.449,4.678,10.449,10.449V124.865z"/>
<circle style="fill:#FFFFFF;" cx="94.041" cy="171.886" r="15.673"/>
<path d="M485.878,138.971v-21.943h-31.869v-13.061c0-10.082-8.204-18.286-18.286-18.286h-83.592
	c-10.082,0-18.286,8.203-18.286,18.286v13.061H120.686v-7.837c0-10.082-8.203-18.286-18.286-18.286H79.412
	c-10.082,0-18.286,8.203-18.286,18.286v7.837H26.122v21.943H0V204.8h26.122v210.024h225.766
	c16.236,7.38,34.257,11.494,53.222,11.494c17.743,0,34.662-3.601,50.064-10.108l0.015,0.014l3.162-1.398h119.69h7.837V204.8H512
	v-65.829H485.878z M26.122,189.127H15.673v-34.482h10.449V189.127z M427.886,101.355h7.837c1.441,0,2.612,1.172,2.612,2.612v13.061
	h-10.449V101.355z M401.763,101.355h10.449v15.673h-10.449V101.355z M375.641,101.355h10.449v15.673h-10.449V101.355z
	 M349.518,103.967c0-1.44,1.171-2.612,2.612-2.612h7.837v15.673h-10.449V103.967z M76.8,109.192c0-1.44,1.172-2.612,2.612-2.612
	H102.4c1.44,0,2.612,1.172,2.612,2.612v7.837H76.8V109.192z M41.796,399.151v-15.673H209.17
	c5.133,5.706,10.765,10.954,16.828,15.673H41.796z M354.815,399.151l-5.964,2.713c-13.467,5.653-28.245,8.781-43.74,8.781
	c-62.513,0-113.371-50.858-113.371-113.371s50.858-113.371,113.371-113.371s113.371,50.858,113.371,113.371
	C418.482,341.968,392.481,380.699,354.815,399.151z M323.396,169.531v-13.318h88.816v31.347H372.97
	C358.164,178.368,341.371,172.092,323.396,169.531z M470.204,399.151h-85.982c6.064-4.72,11.696-9.967,16.828-15.673h69.153V399.151
	z M470.204,367.804H413.12c13.292-20.286,21.035-44.519,21.035-70.531c0-26.012-7.743-50.245-21.035-70.531h57.084V367.804z
	 M470.204,211.069h-69.152c-2.446-2.719-5.006-5.333-7.672-7.837h34.506v-62.694H307.722v27.723
	c-0.869-0.018-1.739-0.033-2.612-0.033c-71.155,0-129.045,57.889-129.045,129.045c0,26.012,7.743,50.245,21.035,70.531H41.796
	V226.743h107.248v-15.673H41.796v-78.367h428.408V211.069z M496.327,189.127h-10.449v-34.482h10.449V189.127z"/>
<rect x="164.718" y="211.069" width="15.673" height="15.673"/>
<path d="M305.11,216.294c-44.652,0-80.98,36.327-80.98,80.98s36.328,80.98,80.98,80.98s80.98-36.327,80.98-80.98
	S349.762,216.294,305.11,216.294z M305.11,362.58c-36.01,0-65.306-29.297-65.306-65.306s29.296-65.306,65.306-65.306
	s65.306,29.297,65.306,65.306S341.121,362.58,305.11,362.58z"/>
<path d="M255.478,297.273h15.673c0-18.725,15.234-33.959,33.959-33.959v-15.673C277.743,247.641,255.478,269.907,255.478,297.273z"
	/>
<path d="M94.041,195.396c12.964,0,23.51-10.546,23.51-23.51c0-12.964-10.546-23.51-23.51-23.51s-23.51,10.546-23.51,23.51
	C70.531,184.85,81.077,195.396,94.041,195.396z M94.041,164.049c4.322,0,7.837,3.515,7.837,7.837s-3.515,7.837-7.837,7.837
	c-4.322,0-7.837-3.515-7.837-7.837S89.719,164.049,94.041,164.049z"/>
<g>
</g>
<g>
</g>
<g>
</g>
<g>
</g>
<g>
</g>
<g>
</g>
<g>
</g>
<g>
</g>
<g>
</g>
<g>
</g>
<g>
</g>
<g>
</g>
<g>
</g>
<g>
</g>
<g>
</g>
</svg>
